<svg width="512" height="512" viewBox="0 0 512 512" fill="none" xmlns="http://www.w3.org/2000/svg">
  <path d="M256 0C397.29 0 512 114.71 512 256C512 315.312 491.233 369.86 456.742 412.519C423.507 453.654 376.841 483.879 323.418 497.726C309.834 501.401 295.834 504.117 281.493 505.858C272.972 506.969 264.312 507.637 255.53 507.82C255.686 507.825 255.843 507.83 256 507.834V512H255.53C254.605 512 253.683 511.991 252.762 511.975C118.25 510.171 9.73 410.398 0.457 281.524C0.284 279.696 0.137 277.855 0.018 276.004H0V256H0.018C0.137 254.149 0.284 252.308 0.457 250.48C9.796 121.085 119.075 21.051 254.278 19.78C254.851 19.771 255.425 19.767 256 19.767V0Z" fill="#E3350D"/>
  <path d="M456.742 412.519C423.507 453.654 376.841 483.879 323.418 497.726C309.834 501.401 295.834 504.117 281.493 505.858C272.972 506.969 264.312 507.637 255.53 507.82C255.686 507.825 255.843 507.83 256 507.834V512H255.53C254.605 512 253.683 511.991 252.762 511.975C118.25 510.171 9.73 410.398 0.457 281.524C0.284 279.696 0.137 277.855 0.018 276.004H0V256H256V0C397.29 0 512 114.71 512 256C512 315.312 491.233 369.86 456.742 412.519Z" fill="white"/>
  <path d="M255.53 507.82C255.686 507.825 255.843 507.83 256 507.834V256H0.018C0.137 254.149 0.284 252.308 0.457 250.48C9.796 121.085 119.075 21.051 254.278 19.78C254.851 19.771 255.425 19.767 256 19.767V0C114.71 0 0 114.71 0 256C0 397.29 114.71 512 256 512H255.53C254.605 512 253.683 511.991 252.762 511.975C118.25 510.171 9.73 410.398 0.457 281.524C0.284 279.696 0.137 277.855 0.018 276.004H0V256H256V0C397.29 0 512 114.71 512 256C512 315.312 491.233 369.86 456.742 412.519C423.507 453.654 376.841 483.879 323.418 497.726C309.834 501.401 295.834 504.117 281.493 505.858C272.972 506.969 264.312 507.637 255.53 507.82Z" fill="#151515" fill-opacity="0.1"/>
  <circle cx="256" cy="256" r="80" fill="white" stroke="#151515" stroke-width="16"/>
</svg>